<svg version="1.1" xmlns="http://www.w3.org/2000/svg" style="display: block;" viewBox="0 0 2720 1568" width="2720" height="1568" preserveAspectRatio="none">
<path transform="translate(0,0)" fill="rgb(0,0,0)" d="M 0 0 L 2720 0 L 2720 1568 L 0 1568 L 0 0 z"/>
<path transform="translate(0,0)" fill="rgb(121,33,127)" d="M 1313.37 580.227 L 1314.59 579.248 C 1317.72 576.694 1323.91 569.866 1327.26 566.551 C 1335.85 557.906 1344.97 549.796 1354.55 542.265 C 1440.95 475.172 1536.72 442.246 1646.44 451.548 C 1738.57 459.36 1853.65 515.111 1914.59 585.061 C 1931.12 576.718 1948.19 561.762 1965.77 552.897 C 2138.13 466.002 2335.92 450.087 2494.51 575.137 C 2503.29 582.057 2551.11 615.766 2534.88 628.144 C 2516.65 632.336 2462.97 598.558 2444.28 592.38 C 2441.56 591.481 2407.63 580.944 2407.82 581.074 C 2383.41 578.833 2357.48 574.659 2333.06 584.284 C 2304.61 595.794 2292.26 611.915 2301.32 643.81 C 2313.12 684.087 2337.71 720.791 2362.18 754.4 C 2412.62 823.699 2473.21 886.331 2541 938.782 C 2549.91 945.678 2540.07 957.21 2534.27 961.97 C 2529.59 962.025 2520.5 962.394 2516.1 961.388 C 2439.98 943.957 2370.05 905.504 2308.06 858.771 C 2285.36 841.653 2266.59 824.89 2243.81 808.482 C 2232.85 802.34 2219.12 797.403 2207.11 804.377 C 2178.33 821.086 2160.63 847.863 2138.11 872.236 C 2084.57 930.174 2018.56 980.096 1938.48 991.694 C 1934.67 992.246 1930.01 990.972 1926.3 990.089 C 1896.2 982.289 1763.17 890.961 1739.94 867.401 C 1734.52 864.401 1682.46 820.467 1675.9 814.461 C 1665.4 808.394 1616.12 763.465 1605.71 769.551 C 1551.36 801.33 1504.71 848.869 1454.66 887.237 C 1420.05 914.095 1383.78 938.732 1346.05 961.001 C 1334.66 967.686 1321.92 975.206 1309.93 980.735 C 1294.52 987.848 1284.28 983.201 1269.01 977.96 C 1269.67 977.23 1270.46 976.36 1271.37 975.352 C 1267.91 966.169 1262.81 957.142 1264.58 946.843 C 1266.46 935.905 1277.88 931.929 1285.83 926.006 C 1290.46 922.554 1289.76 922.789 1290.72 917.56 C 1289.04 915.375 1271.03 902.879 1267.37 900.049 C 1255.76 890.925 1244.36 881.535 1233.18 871.887 C 1170.68 817.206 1105.32 729.907 1086.46 647.539 C 1079.9 618.917 1084.96 583.867 1110.49 565.151 C 1124.46 554.911 1140.7 552.944 1157.61 551.863 C 1202.21 549.01 1235.73 574.93 1271.04 597.59 C 1280.92 603.822 1290.47 610.511 1302.25 612.457 L 1303.58 612.671 C 1305.25 605.892 1302.14 596.717 1309 589.058 C 1310.67 587.197 1312.61 582.682 1313.37 580.227 z"/>
<path transform="translate(0,0)" fill="rgb(110,197,196)" d="M 1914.59 585.061 C 1931.12 576.718 1948.19 561.762 1965.77 552.897 C 2138.13 466.002 2335.92 450.087 2494.51 575.137 C 2503.29 582.057 2551.11 615.766 2534.88 628.144 C 2516.65 632.336 2462.97 598.558 2444.28 592.38 C 2441.56 591.481 2407.63 580.944 2407.82 581.074 C 2383.41 578.833 2357.48 574.659 2333.06 584.284 C 2304.61 595.794 2292.26 611.915 2301.32 643.81 C 2313.12 684.087 2337.71 720.791 2362.18 754.4 C 2412.62 823.699 2473.21 886.331 2541 938.782 C 2549.91 945.678 2540.07 957.21 2534.27 961.97 C 2529.59 962.025 2520.5 962.394 2516.1 961.388 C 2439.98 943.957 2370.05 905.504 2308.06 858.771 C 2285.36 841.653 2266.59 824.89 2243.81 808.482 C 2232.85 802.34 2219.12 797.403 2207.11 804.377 C 2178.33 821.086 2160.63 847.863 2138.11 872.236 C 2084.57 930.174 2018.56 980.096 1938.48 991.694 C 1934.67 992.246 1930.01 990.972 1926.3 990.089 L 1926.41 989.063 C 1928.41 968.305 1954.19 958.468 1959.07 944.801 C 1966.37 936.388 1972.67 925.303 1979.44 916.205 C 2031.07 846.793 2080.98 764.905 2112.58 684.272 C 2121.27 662.078 2135.43 619.003 2124.78 596.523 C 2118.54 583.353 2101.47 581.661 2088.73 580.251 C 2061.09 577.19 2034.91 577.418 2007.47 582.424 C 1996.78 584.375 1985.74 587.135 1975.47 590.688 C 1959.09 596.354 1915.71 617.989 1899.89 612.33 C 1899.57 612.216 1899.25 612.094 1898.93 611.976 C 1898.99 595.434 1913.22 594.616 1914.59 585.061 z"/>
<path transform="translate(0,0)" fill="rgb(0,0,0)" d="M 1290.72 917.56 C 1289.04 915.375 1271.03 902.879 1267.37 900.049 C 1255.76 890.925 1244.36 881.535 1233.18 871.887 C 1170.68 817.206 1105.32 729.907 1086.46 647.539 C 1079.9 618.917 1084.96 583.867 1110.49 565.151 C 1124.46 554.911 1140.7 552.944 1157.61 551.863 C 1202.21 549.01 1235.73 574.93 1271.04 597.59 C 1280.92 603.822 1290.47 610.511 1302.25 612.457 L 1303.58 612.671 C 1304.03 612.703 1304.49 612.743 1304.94 612.767 C 1342.64 614.815 1395.3 538.789 1483.41 555.88 C 1497.53 558.619 1513.93 563.953 1524.06 574.724 C 1536.22 587.642 1536.57 605.907 1535.92 622.551 C 1535.35 636.92 1529.9 649.077 1524.47 662.151 C 1495.1 732.848 1434.13 801.336 1378.32 852.721 C 1366.79 863.335 1304.87 918.279 1292.64 918.413 L 1290.72 917.56 z"/>
<path transform="translate(0,0)" fill="rgb(0,0,0)" d="M 1959.07 944.801 C 1948.39 932.459 1907.18 908.726 1890.69 895.136 C 1812.37 830.583 1738.17 752.739 1694.81 660.045 C 1685.48 640.107 1679.04 604.512 1687.33 583.619 C 1696.49 563.727 1724.31 557.451 1743.28 554.689 C 1762.05 551.957 1763.89 553.014 1781.97 555.248 C 1827.34 560.851 1858.64 594.147 1898.19 611.654 L 1898.93 611.976 C 1899.25 612.094 1899.57 612.216 1899.89 612.33 C 1915.71 617.989 1959.09 596.354 1975.47 590.688 C 1985.74 587.135 1996.78 584.375 2007.47 582.424 C 2034.91 577.418 2061.09 577.19 2088.73 580.251 C 2101.47 581.661 2118.54 583.353 2124.78 596.523 C 2135.43 619.003 2121.27 662.078 2112.58 684.272 C 2080.98 764.905 2031.07 846.793 1979.44 916.205 C 1972.67 925.303 1966.37 936.388 1959.07 944.801 z"/>
<path transform="translate(0,0)" fill="rgb(110,197,196)" d="M 1269.01 977.96 C 1256.8 975.909 1234.63 963.774 1222.89 957.901 C 1161.23 927.046 1114.74 877.623 1073.12 823.784 C 1060.55 807.527 1039.42 780.029 1022.73 768.401 C 1012.87 761.524 1002.67 763.47 993.111 770.184 C 973.723 783.804 953.388 807.134 937.706 825.171 C 887.343 883.096 825.97 939.682 749.691 959.164 C 739.961 961.649 722.614 964.367 712.166 962.114 C 672.043 953.461 624.445 922.955 590.61 900.332 C 569.225 886.034 543.906 862.235 525.438 845.139 C 510.36 831.181 472.929 785.566 458.313 776.759 C 453.127 776.904 450.871 777.913 446.834 781.146 C 433.631 791.72 421.631 805.516 409.521 817.408 C 383.806 842.66 356.536 868.185 327.011 888.948 C 298.451 909.034 205.357 967.965 172.588 961.339 C 165.493 959.905 158.892 954.974 155.197 948.766 C 154.263 947.23 153.722 945.488 153.62 943.694 C 153.248 937.551 158.028 931.767 162.111 927.629 C 180.668 908.83 202.316 892.567 222.249 875.213 C 267.285 836.004 310.084 793.308 342.525 742.86 C 345.808 737.755 350.122 732.75 353.144 727.568 C 356.935 721.067 359.71 713.393 363.298 706.729 C 364.957 703.655 367.479 701.013 368.88 697.77 C 382.845 665.432 401.307 620.943 382.078 587.276 C 372.625 570.725 347.913 561.68 330.479 557.95 C 322.572 556.259 312.308 556.996 304.16 557.468 C 267.594 559.109 247.185 580.497 222.655 604.383 C 218.385 608.541 212.537 614.163 207.967 618.127 C 205.932 619.893 199.005 623.46 196.374 625.447 C 192.457 628.405 187.45 629.554 182.465 629.294 C 165.669 621.788 195.404 587.743 201.657 579.928 C 241.451 529.273 291.663 487.758 348.893 458.192 C 353.015 456.073 359.257 452.14 363.01 450.514 C 388.72 439.277 416.192 432.609 444.192 430.808 C 464.702 429.34 494.399 430.218 514.452 435.798 C 576.505 453.066 632.888 496.112 676.788 542.269 C 685.269 551.186 701.004 570.463 710.764 578.492 C 711.55 579.139 723.922 565.866 726.183 563.853 C 752.183 540.719 788.036 515.924 819.72 501.847 C 871.339 478.913 927.714 465.495 983.983 461.899 C 996.582 461.094 1006.71 459.666 1019.54 459.865 C 1070.72 460.985 1121.38 470.426 1169.53 487.816 C 1188.98 494.952 1207.92 503.366 1226.25 513.005 C 1245.85 523.404 1304.44 561.228 1313.37 580.227 C 1312.61 582.682 1310.67 587.197 1309 589.058 C 1302.14 596.717 1305.25 605.892 1303.58 612.671 L 1302.25 612.457 C 1290.47 610.511 1280.92 603.822 1271.04 597.59 C 1235.73 574.93 1202.21 549.01 1157.61 551.863 C 1140.7 552.944 1124.46 554.911 1110.49 565.151 C 1084.96 583.867 1079.9 618.917 1086.46 647.539 C 1105.32 729.907 1170.68 817.206 1233.18 871.887 C 1244.36 881.535 1255.76 890.925 1267.37 900.049 C 1271.03 902.879 1289.04 915.375 1290.72 917.56 C 1289.76 922.789 1290.46 922.554 1285.83 926.006 C 1277.88 931.929 1266.46 935.905 1264.58 946.843 C 1262.81 957.142 1267.91 966.169 1271.37 975.352 C 1270.46 976.36 1269.67 977.23 1269.01 977.96 z"/>
<path transform="translate(0,0)" fill="rgb(0,0,0)" d="M 860.011 549.957 C 876.523 549.235 903.33 553.584 917.292 561.874 C 965.603 590.558 928.736 668.711 907.185 704.522 C 865.564 773.682 806.788 836.63 742.814 885.614 C 736.883 890.155 724.075 901.573 717.54 903.236 C 706.449 898.296 649.158 845.519 640.343 834.342 C 636.277 831.345 629.888 824.104 626.324 820.207 C 603.803 795.588 583.559 768.864 564.16 741.754 C 561.651 738.234 558.679 731.207 556.553 727.87 C 500.225 639.451 509.292 570.221 627.432 573.257 C 641.938 573.63 651.756 578.083 664.367 584.432 C 683.279 593.952 700.544 614.756 723.717 608.426 C 737.04 604.625 750.978 593.975 762.827 586.833 C 787.226 571.268 811.257 559.043 839.665 552.855 C 846.606 551.346 853.128 553.273 860.011 549.957 z"/>
<path transform="translate(0,0)" fill="rgb(110,197,196)" d="M 2361.02 1178.02 L 2417.01 1178.02 L 2417.07 1246.59 C 2417.08 1276.2 2418.84 1310.66 2409.7 1338.77 C 2405.89 1350.56 2399.3 1361.26 2390.48 1369.95 C 2356.37 1404.13 2302.38 1399.14 2258.11 1399.02 L 2180.04 1398.99 L 2179.98 1282.21 C 2179.98 1255.75 2179.41 1227.19 2180.25 1200.92 C 2168.22 1201.22 2153.83 1205.04 2153.84 1188.96 C 2153.87 1185.33 2153.94 1181.69 2154.06 1178.06 L 2210.94 1178.08 L 2210.98 1376.03 C 2230.05 1376.18 2253.03 1378.36 2267.69 1363.52 C 2287.26 1343.7 2283.1 1311.58 2283.09 1285.79 L 2283.03 1200.9 C 2259.77 1201.23 2260.38 1201.19 2261.09 1178.06 C 2271.03 1178.01 2305.07 1177.32 2313.07 1178.52 C 2316.95 1193.53 2314.36 1308.01 2313.67 1330.6 C 2313.53 1335.17 2307.4 1350.82 2304.58 1355.73 C 2300.07 1363.6 2293.99 1369.61 2287.45 1376.03 C 2312.13 1376.19 2342.11 1377.41 2361.81 1358.81 C 2394.94 1325.96 2384.97 1268.9 2385.2 1226.4 C 2385.24 1219.06 2386.48 1209.01 2385.34 1202.13 C 2381.99 1200.08 2367.77 1201.47 2361.73 1198.46 C 2360.31 1193.59 2360.93 1183.48 2361.02 1178.02 z"/>
<path transform="translate(0,0)" fill="rgb(110,186,182)" d="M 2361.02 1178.02 L 2417.01 1178.02 L 2417.07 1246.59 C 2417.08 1276.2 2418.84 1310.66 2409.7 1338.77 C 2405.89 1350.56 2399.3 1361.26 2390.48 1369.95 C 2356.37 1404.13 2302.38 1399.14 2258.11 1399.02 L 2180.04 1398.99 L 2179.98 1282.21 C 2179.98 1255.75 2179.41 1227.19 2180.25 1200.92 L 2182.38 1200.79 C 2184.34 1206.32 2183.95 1234.32 2183.99 1241.98 C 2184.24 1288.1 2183.69 1334.26 2183.55 1380.38 C 2183.72 1382.06 2183.51 1392.99 2184.94 1393.13 C 2210.98 1395.63 2237.94 1394.11 2264.12 1394.35 C 2317.53 1394.82 2382.21 1402 2404.65 1339.33 C 2408.07 1329.81 2410.28 1319.91 2411.22 1309.84 C 2412.04 1300.34 2411.31 1271.78 2411.06 1260.61 C 2410.62 1240.98 2412.82 1202.71 2410.34 1184.65 C 2403.63 1179.99 2378.99 1181.98 2370.13 1181.97 C 2365.92 1181.96 2363.52 1187.06 2363.75 1191.09 C 2369.98 1201.33 2381.8 1192.05 2388.44 1200.29 C 2390.04 1205.38 2389.49 1219.81 2389.35 1225.89 C 2388.69 1252.6 2390.2 1279.35 2388.4 1306.03 C 2387.82 1314.63 2384.2 1332.42 2380.6 1340.43 C 2378.18 1345.82 2368.54 1360 2362.51 1361.38 C 2361.51 1359.57 2361.51 1360.41 2361.81 1358.81 C 2394.94 1325.96 2384.97 1268.9 2385.2 1226.4 C 2385.24 1219.06 2386.48 1209.01 2385.34 1202.13 C 2381.99 1200.08 2367.77 1201.47 2361.73 1198.46 C 2360.31 1193.59 2360.93 1183.48 2361.02 1178.02 z"/>
<path transform="translate(0,0)" fill="rgb(110,197,196)" d="M 453.087 247.223 C 500.524 243.074 542.304 278.259 546.286 325.71 C 550.269 373.161 514.939 414.818 467.473 418.635 C 420.242 422.432 378.836 387.314 374.873 340.097 C 370.91 292.879 405.884 251.351 453.087 247.223 z"/>
<path transform="translate(0,0)" fill="rgb(121,33,127)" d="M 627.124 1162.11 L 714.796 1162.1 C 715.109 1168.63 717.228 1180.37 713.756 1184.97 C 711.295 1184.9 710.446 1183.9 710.469 1183.9 C 703.155 1184.71 693.647 1185.48 686.659 1186.97 C 685.469 1196.29 685.934 1211.82 685.938 1221.7 L 685.976 1278.62 L 685.962 1334 C 685.925 1344.42 685.411 1358.93 686.418 1369.04 C 689.391 1372.87 709.548 1373.32 714.77 1373.11 C 714.79 1378.25 714.811 1385.28 714.839 1390.57 C 714.847 1392.04 717.736 1392.85 715.989 1395.08 C 708.502 1396.28 699.803 1396.06 692.168 1396 C 670.533 1395.83 648.822 1396.14 627.195 1395.84 C 627.14 1388.8 626.83 1380.01 627.207 1373.11 C 634.946 1373.22 647.106 1372.61 654.474 1370.01 C 657.358 1366.79 656.098 1300.32 656.081 1291.02 C 627.868 1290.76 599.653 1290.73 571.44 1290.93 C 560.26 1290.95 538.696 1292.15 528.756 1289.51 L 528.878 1296.12 C 530.798 1316.2 527.019 1349.92 529.57 1369.36 C 532.826 1372.69 550.091 1372.17 556.944 1373.66 C 559.645 1376.57 559.491 1389.43 558.758 1393.24 C 558.443 1394.88 551.656 1396.11 549.672 1396.15 C 525.071 1396.63 500.537 1394.97 475.968 1396.94 C 473.942 1397.11 472.581 1395.64 471.19 1394.46 C 468.786 1388.35 469.812 1379.88 470.005 1372.96 C 481.091 1373.49 487.402 1370.72 498.934 1370.94 C 498.895 1333.28 497.406 1283.68 499.181 1246.87 L 499.078 1185.85 C 493.14 1185.81 487.202 1185.66 481.269 1185.38 C 477.529 1185.24 476.699 1185.23 473.325 1183.6 C 468.378 1178.02 469.986 1170.08 470.246 1162.19 L 558.9 1162.19 C 558.982 1167.6 559.545 1177.14 558.249 1182 C 552.5 1187.51 529.731 1182.88 529.429 1187.72 C 528.446 1203.46 528.89 1251.21 528.913 1265.1 C 542.308 1265.11 653.002 1265.93 656.224 1264.08 C 656.034 1238.01 655.992 1211.94 656.099 1185.87 C 649.423 1185.8 636.094 1186.46 630.505 1183.95 C 627.321 1180.7 626.9 1178.83 626.941 1174.19 L 627.124 1162.11 z"/>
<path transform="translate(0,0)" fill="rgb(91,19,95)" d="M 627.124 1162.11 L 714.796 1162.1 C 715.109 1168.63 717.228 1180.37 713.756 1184.97 C 711.295 1184.9 710.446 1183.9 710.469 1183.9 C 703.155 1184.71 693.647 1185.48 686.659 1186.97 C 685.469 1196.29 685.934 1211.82 685.938 1221.7 L 685.976 1278.62 L 685.962 1334 C 685.925 1344.42 685.411 1358.93 686.418 1369.04 C 689.391 1372.87 709.548 1373.32 714.77 1373.11 C 714.79 1378.25 714.811 1385.28 714.839 1390.57 C 714.847 1392.04 717.736 1392.85 715.989 1395.08 C 708.502 1396.28 699.803 1396.06 692.168 1396 C 670.533 1395.83 648.822 1396.14 627.195 1395.84 C 627.14 1388.8 626.83 1380.01 627.207 1373.11 C 634.946 1373.22 647.106 1372.61 654.474 1370.01 C 657.358 1366.79 656.098 1300.32 656.081 1291.02 C 627.868 1290.76 599.653 1290.73 571.44 1290.93 C 560.26 1290.95 538.696 1292.15 528.756 1289.51 L 527.422 1287.98 L 528.533 1286.78 C 544.647 1285.82 651.631 1283.7 658.808 1288.49 C 663.909 1302.52 658.573 1353.78 660.22 1370.75 C 660.875 1377.51 635.151 1376.46 630.49 1376.51 L 630.49 1391.9 L 711.531 1391.83 L 711.509 1376.49 C 703.805 1376.51 690.459 1377.04 683.688 1374.44 C 680.918 1368.84 681.269 1201.61 682.621 1186.23 C 686.272 1180.94 704.457 1180.97 710.442 1178.8 C 712.73 1175.43 711.701 1170.11 711.506 1165.49 C 688.659 1165.34 665.906 1166.01 643.072 1166.35 C 640.296 1166.39 638.147 1171.33 638.137 1174.09 C 642.161 1180.34 651.227 1181.82 658.636 1185.42 C 658.883 1186.04 659.483 1187.53 659.453 1188.14 C 659.014 1197.13 660.835 1261.24 658.425 1264.76 L 656.224 1264.08 C 656.034 1238.01 655.992 1211.94 656.099 1185.87 C 649.423 1185.8 636.094 1186.46 630.505 1183.95 C 627.321 1180.7 626.9 1178.83 626.941 1174.19 L 627.124 1162.11 z"/>
<path transform="translate(0,0)" fill="rgb(91,19,95)" d="M 499.181 1246.87 C 504.656 1237.69 496.46 1196.86 501.902 1187.32 C 502.838 1191.77 502.22 1207.83 502.239 1213.62 C 502.459 1235.21 502.487 1256.81 502.325 1278.41 C 502.276 1300.51 503.119 1322.61 502.361 1344.79 C 502.035 1354.35 503.045 1363.32 501.683 1372.93 C 497.269 1377.06 480.276 1376.4 473.271 1376.62 C 473.108 1381.88 472.912 1387.14 472.682 1392.4 C 500.117 1392.15 527.555 1392.07 554.992 1392.16 C 554.997 1386.97 555.134 1381.11 554.866 1375.98 C 548.622 1375.94 532.269 1376.69 527.729 1373.56 C 525.434 1367.6 524.595 1297.19 526.182 1290.3 L 526.73 1289.97 C 528.058 1292.74 528.326 1293.15 528.878 1296.12 C 530.798 1316.2 527.019 1349.92 529.57 1369.36 C 532.826 1372.69 550.091 1372.17 556.944 1373.66 C 559.645 1376.57 559.491 1389.43 558.758 1393.24 C 558.443 1394.88 551.656 1396.11 549.672 1396.15 C 525.071 1396.63 500.537 1394.97 475.968 1396.94 C 473.942 1397.11 472.581 1395.64 471.19 1394.46 C 468.786 1388.35 469.812 1379.88 470.005 1372.96 C 481.091 1373.49 487.402 1370.72 498.934 1370.94 C 498.895 1333.28 497.406 1283.68 499.181 1246.87 z"/>
<path transform="translate(0,0)" fill="rgb(110,197,196)" d="M 2192.24 298.087 C 2241.48 295.923 2274.85 327.956 2278.09 376.794 C 2280.94 419.62 2243.08 455.606 2202.01 458.972 C 2199.21 459.202 2197.87 459.171 2194.97 459.791 L 2194.15 459.974 C 2159.31 461.121 2123 434.623 2111.54 402.17 C 2104.74 382.923 2107 366.689 2116.32 348.438 C 2125.2 331.047 2146.93 315.304 2163.81 305.797 C 2168.72 303.276 2185.43 300.331 2191.34 298.39 L 2192.24 298.087 z"/>
<path transform="translate(0,0)" fill="rgb(110,197,196)" d="M 997.576 264.345 C 1010.75 258.468 1032.65 261.092 1046.32 265.169 C 1046.62 265.39 1053.45 267.923 1054.4 268.273 C 1080.07 277.671 1099.09 296.497 1098.35 325.345 C 1097.66 352.203 1083.54 384.237 1064.16 403.112 C 1053.5 413.497 1031.97 422.178 1017.24 421.309 C 972.016 420.207 936.242 385.718 937.924 339.275 C 939.145 305.577 964.023 273.539 996.602 264.196 C 996.927 264.246 997.251 264.296 997.576 264.345 z"/>
<path transform="translate(0,0)" fill="rgb(110,197,196)" d="M 1926.04 1178.04 L 2055.73 1177.96 C 2064.52 1177.95 2105.03 1177.36 2111.59 1178.75 C 2116.59 1184.13 2117.75 1213.07 2117.43 1221.13 C 2116.29 1250.01 2110.13 1275.61 2090.04 1297.29 C 2077.36 1312.28 2060.67 1325.19 2051.23 1342.6 C 2048.5 1347.63 2042.63 1372.35 2048.23 1375.41 C 2050.37 1376.57 2073.15 1376.07 2077.01 1376.03 L 2076.98 1399.01 C 2065.57 1398.95 2027.97 1401.51 2021.11 1396.65 C 2014.98 1386.19 2018.37 1358.92 2020.97 1347.18 C 2030.23 1305.45 2077 1288.21 2083.99 1247.69 C 2085.98 1236.16 2085.14 1213.5 2085.01 1200.91 C 2075.66 1200.93 1987.15 1200.15 1983.54 1202.35 C 1969.57 1223.86 1973.65 1312.37 1972.93 1341.01 C 1972.35 1363.9 1971.61 1388.95 1971.91 1411.76 C 1972.04 1420.74 1972.91 1455.58 1970.86 1461.27 C 1996.23 1460.03 1997.64 1457.71 1996.97 1483.94 L 1943.05 1483.96 L 1942.84 1326.62 C 1942.86 1301.57 1942.03 1273.01 1944.19 1248.17 C 1945.39 1234.32 1952.92 1214.62 1956.85 1200.91 C 1943.38 1201.14 1925.85 1206.41 1925.83 1189.13 C 1925.86 1185.43 1925.92 1181.74 1926.04 1178.04 z"/>
<path transform="translate(0,0)" fill="rgb(110,186,182)" d="M 1926.04 1178.04 L 2055.73 1177.96 C 2064.52 1177.95 2105.03 1177.36 2111.59 1178.75 C 2116.59 1184.13 2117.75 1213.07 2117.43 1221.13 C 2116.29 1250.01 2110.13 1275.61 2090.04 1297.29 C 2077.36 1312.28 2060.67 1325.19 2051.23 1342.6 C 2048.5 1347.63 2042.63 1372.35 2048.23 1375.41 C 2050.37 1376.57 2073.15 1376.07 2077.01 1376.03 L 2076.98 1399.01 C 2065.57 1398.95 2027.97 1401.51 2021.11 1396.65 C 2014.98 1386.19 2018.37 1358.92 2020.97 1347.18 C 2030.23 1305.45 2077 1288.21 2083.99 1247.69 C 2085.98 1236.16 2085.14 1213.5 2085.01 1200.91 C 2075.66 1200.93 1987.15 1200.15 1983.54 1202.35 C 1969.57 1223.86 1973.65 1312.37 1972.93 1341.01 C 1972.35 1363.9 1971.61 1388.95 1971.91 1411.76 C 1972.04 1420.74 1972.91 1455.58 1970.86 1461.27 C 1970.27 1460.68 1969.86 1460.1 1969.53 1459.34 C 1966.93 1453.2 1966.67 1272.53 1968.29 1252.06 C 1969.76 1233.5 1972.5 1215.59 1979.03 1198.11 C 1985.24 1192.72 2064.19 1196.03 2078.28 1194.85 C 2093.46 1193.58 2090.02 1212.27 2090.95 1220.95 C 2096.05 1268.68 2061.85 1288.86 2037.25 1322.24 C 2026.87 1336.25 2024.68 1346.81 2022.95 1364.01 C 2022.44 1369.95 2021.06 1388.8 2024.78 1393.22 C 2033.64 1394.57 2062.42 1395.09 2070.99 1393.51 C 2072.18 1392.08 2077.28 1386.26 2074.58 1384.91 C 2057.55 1376.44 2034.11 1386.65 2042.4 1354.85 C 2049.52 1327.53 2075.61 1307.93 2093.44 1287.33 C 2102.11 1277.3 2107.13 1256.61 2110.62 1243.62 C 2112.15 1237.92 2111.93 1199.93 2110.11 1195.91 C 2108.87 1197.05 2109.11 1201.38 2109.17 1203.22 L 2107.81 1203.5 C 2105.2 1196.87 2107.81 1193.69 2107.37 1186.09 C 2100.19 1178.58 2083.24 1186.58 2072.53 1185.23 C 2039.33 1181.03 2003.81 1183.18 1970.32 1183.47 C 1963.27 1183.52 1937.94 1181.51 1933.47 1183.7 C 1931.08 1186.6 1930.82 1187 1929.75 1190.58 C 1932.11 1200.25 1952.13 1192.12 1957.99 1198.06 L 1956.85 1200.91 C 1943.38 1201.14 1925.85 1206.41 1925.83 1189.13 C 1925.86 1185.43 1925.92 1181.74 1926.04 1178.04 z"/>
<path transform="translate(0,0)" fill="rgb(121,33,127)" d="M 1098.99 1161.96 C 1118.67 1161.96 1138.33 1161.91 1158.01 1161.73 C 1163.13 1161.68 1171.05 1160.62 1174.61 1164.07 C 1176.78 1169.72 1177.46 1180.58 1172.19 1184.78 C 1166.65 1185.01 1158.49 1185.01 1153.38 1186.48 C 1142.73 1198.87 1131.05 1217.06 1121.37 1230.65 C 1112.87 1242.58 1100.96 1257.46 1093.71 1269.71 C 1095.89 1275.09 1105.64 1290.07 1109.53 1296.61 C 1123.1 1319.42 1135.78 1343.8 1150.89 1365.48 C 1155.47 1372.06 1169.65 1370.13 1175.24 1374.33 C 1176.66 1375.4 1176.04 1394.03 1176 1397.14 C 1161.91 1397.2 1140.2 1398.31 1129.4 1387.51 C 1113.45 1371.56 1080.32 1295.39 1069.21 1289.86 C 1058.95 1284.74 1046.77 1287.46 1035.98 1285.42 L 1034.11 1285.84 L 1034.05 1338.04 C 1034.05 1347.1 1033.65 1361.46 1034.84 1370 C 1041.16 1372.42 1056.17 1373.08 1062.99 1372.94 C 1063.09 1380.55 1062.99 1388.4 1062.98 1396.03 C 1033.96 1396.42 1004.07 1396.04 974.98 1396.04 C 974.902 1388.45 975.025 1380.57 975.051 1372.95 C 981.641 1373.3 996.729 1372.22 1003.01 1370.17 C 1004.73 1357.74 1003.95 1321.77 1003.96 1308.02 L 1003.97 1186.05 C 997.926 1186.18 983.025 1186.12 978.177 1183.56 C 973.176 1178.12 974.766 1169.64 974.989 1161.93 L 1062.07 1161.92 C 1062.17 1165.93 1062.56 1177.97 1061.92 1181.19 C 1060.5 1188.27 1042.1 1182.12 1034.86 1187.69 C 1031.57 1201.74 1034.44 1244.76 1033.77 1262.18 C 1045.22 1261.85 1057.03 1263.7 1067.92 1260.13 C 1074.71 1252.88 1118.72 1190.62 1118.66 1186.05 L 1115.56 1185.19 C 1110.04 1184.85 1105.5 1185.52 1101.26 1182.88 C 1097.29 1177.73 1098.75 1168.94 1098.99 1161.96 z"/>
<path transform="translate(0,0)" fill="rgb(91,19,95)" d="M 974.989 1161.93 L 1062.07 1161.92 C 1062.17 1165.93 1062.56 1177.97 1061.92 1181.19 C 1060.5 1188.27 1042.1 1182.12 1034.86 1187.69 C 1031.57 1201.74 1034.44 1244.76 1033.77 1262.18 L 1032.08 1262.58 C 1029.66 1259.03 1030.18 1193.32 1030.75 1183.23 C 1040.03 1181.64 1049.15 1181.05 1058.53 1180.28 C 1058.77 1175.24 1058.97 1170.6 1058.95 1165.55 C 1035.79 1163.79 1003.13 1165.97 978.204 1165.22 L 978.525 1179.85 C 984.856 1180.65 1002.06 1182.31 1006.8 1184.52 C 1007.9 1189.83 1007.54 1205.81 1007.57 1211.96 C 1007.71 1232.43 1007.66 1252.89 1007.42 1273.36 L 1007.39 1339.01 C 1007.32 1350.29 1007.88 1361.53 1006.82 1372.74 C 1003.06 1377.52 985.691 1375.73 978.835 1377.61 C 978.52 1382.46 978.12 1387.49 977.904 1392.32 C 1002.83 1392.12 1036.33 1393.42 1059.96 1392.29 L 1059.85 1376.38 C 1052.13 1376.25 1036.68 1377.15 1031.26 1372.65 C 1028.78 1362.64 1032.06 1302.91 1030.47 1288.36 C 1030.4 1287.72 1031.26 1286.22 1031.59 1285.62 L 1034.11 1285.84 L 1034.05 1338.04 C 1034.05 1347.1 1033.65 1361.46 1034.84 1370 C 1041.16 1372.42 1056.17 1373.08 1062.99 1372.94 C 1063.09 1380.55 1062.99 1388.4 1062.98 1396.03 C 1033.96 1396.42 1004.07 1396.04 974.98 1396.04 C 974.902 1388.45 975.025 1380.57 975.051 1372.95 C 981.641 1373.3 996.729 1372.22 1003.01 1370.17 C 1004.73 1357.74 1003.95 1321.77 1003.96 1308.02 L 1003.97 1186.05 C 997.926 1186.18 983.025 1186.12 978.177 1183.56 C 973.176 1178.12 974.766 1169.64 974.989 1161.93 z"/>
<path transform="translate(0,0)" fill="rgb(91,19,95)" d="M 1098.99 1161.96 C 1118.67 1161.96 1138.33 1161.91 1158.01 1161.73 C 1163.13 1161.68 1171.05 1160.62 1174.61 1164.07 C 1176.78 1169.72 1177.46 1180.58 1172.19 1184.78 C 1166.65 1185.01 1158.49 1185.01 1153.38 1186.48 C 1142.73 1198.87 1131.05 1217.06 1121.37 1230.65 C 1112.87 1242.58 1100.96 1257.46 1093.71 1269.71 C 1095.89 1275.09 1105.64 1290.07 1109.53 1296.61 C 1123.1 1319.42 1135.78 1343.8 1150.89 1365.48 C 1155.47 1372.06 1169.65 1370.13 1175.24 1374.33 C 1176.66 1375.4 1176.04 1394.03 1176 1397.14 C 1161.91 1397.2 1140.2 1398.31 1129.4 1387.51 C 1113.45 1371.56 1080.32 1295.39 1069.21 1289.86 C 1058.95 1284.74 1046.77 1287.46 1035.98 1285.42 C 1035.63 1284.75 1035.91 1285.2 1034.76 1284.28 L 1033.69 1283.44 L 1034.34 1282.15 C 1044.92 1282.23 1058.15 1280.69 1067.91 1285.31 C 1086.75 1294.24 1111.97 1365.87 1131.12 1383.96 C 1142.69 1394.89 1157.52 1392.68 1172.13 1392.15 C 1174.91 1364.64 1157.74 1385.92 1141.34 1357.41 C 1124.76 1328.6 1106.7 1299.18 1089.75 1270.46 C 1103.26 1243.51 1133.77 1211.81 1149.54 1184.82 C 1152 1180.6 1166.08 1183.26 1171.28 1178.24 C 1172.6 1173.97 1171.81 1169.67 1171.35 1165.21 L 1102.52 1165.47 C 1102.1 1170.39 1102.29 1175.46 1102.35 1180.42 C 1108.11 1181.1 1114.79 1181.15 1120.16 1182.71 L 1119.72 1183.91 L 1115.56 1185.19 C 1110.04 1184.85 1105.5 1185.52 1101.26 1182.88 C 1097.29 1177.73 1098.75 1168.94 1098.99 1161.96 z"/>
<path transform="translate(0,0)" fill="rgb(121,33,127)" d="M 1584.05 272.013 C 1616.6 260.863 1652.6 272.373 1672.65 300.334 C 1692.69 328.295 1692.03 366.091 1671.02 393.333 C 1650.66 419.729 1615.77 430.253 1584.21 419.515 C 1552.65 408.777 1531.41 379.155 1531.38 345.82 C 1531.34 312.484 1552.52 282.818 1584.05 272.013 z"/>
<path transform="translate(0,0)" fill="rgb(121,33,127)" d="M 759.197 1162.19 C 814.127 1161.51 870.754 1162.03 925.762 1162.2 C 925.768 1169.56 926.963 1209.31 925.018 1213.21 C 919.824 1214.5 908.027 1213.91 902.194 1213.82 C 902.252 1207.5 903.274 1190.98 900.433 1186.78 C 878.508 1187.33 857.76 1189.03 835.603 1187.4 C 831.099 1187.07 824.006 1187.74 820.035 1186.84 L 817.455 1189.27 C 819.34 1204.05 818.025 1248.75 818.086 1265 C 837.05 1265.01 856.042 1265.04 875.004 1264.9 C 884.307 1264.83 893.635 1263.75 902.998 1263.99 L 903.144 1291.16 C 874.923 1290.56 846.418 1291.25 818.087 1290.95 L 818.094 1369.94 L 873.847 1370.06 C 881.586 1370.08 898.906 1370.62 905.557 1369.17 C 909.26 1363.12 902.501 1349.86 907.869 1343.35 C 914.505 1342.59 935.421 1339.9 933.15 1350.55 C 931.538 1358.11 933.636 1392.53 931.007 1395.59 C 919.105 1396.84 902.98 1396.27 890.833 1396.12 C 846.989 1395.58 802.805 1396.75 759.001 1395.97 L 758.944 1372.92 C 767.42 1372.94 770.942 1373.2 779.171 1371.26 C 782.626 1371.26 785.134 1371.64 788.141 1370.07 L 788.24 1185.84 C 762.533 1186.08 758.317 1189.23 759.197 1162.19 z"/>
<path transform="translate(0,0)" fill="rgb(91,19,95)" d="M 898.876 1268.15 C 883.862 1268.12 868.848 1268.17 853.835 1268.31 C 843.805 1268.44 827.173 1269.27 817.907 1267.61 C 811.664 1261.7 814.872 1233.13 814.339 1223.61 C 814.026 1218.02 813.581 1189.55 815.327 1187.04 L 817.455 1189.27 C 819.34 1204.05 818.025 1248.75 818.086 1265 C 837.05 1265.01 856.042 1265.04 875.004 1264.9 C 884.307 1264.83 893.635 1263.75 902.998 1263.99 L 903.144 1291.16 C 874.923 1290.56 846.418 1291.25 818.087 1290.95 L 818.094 1369.94 L 873.847 1370.06 C 881.586 1370.08 898.906 1370.62 905.557 1369.17 C 909.26 1363.12 902.501 1349.86 907.869 1343.35 C 914.505 1342.59 935.421 1339.9 933.15 1350.55 C 931.538 1358.11 933.636 1392.53 931.007 1395.59 C 919.105 1396.84 902.98 1396.27 890.833 1396.12 C 846.989 1395.58 802.805 1396.75 759.001 1395.97 L 758.944 1372.92 C 767.42 1372.94 770.942 1373.2 779.171 1371.26 L 779.516 1372.26 C 782.34 1372.63 785.162 1373.03 787.981 1373.43 L 788.177 1374.03 C 779.755 1374.47 771.815 1375.95 762.35 1376.39 C 762.418 1381.63 762.651 1386.86 763.047 1392.07 C 784.676 1392.86 809.743 1392.17 831.608 1392.13 C 864.015 1392.3 896.422 1392.27 928.828 1392.04 C 929.307 1381.34 929.844 1371.39 929.471 1360.68 L 928.533 1346.51 C 922.948 1346.42 916.225 1346.14 910.751 1346.41 C 910.419 1352.72 909.947 1359.32 910.069 1365.61 C 910.341 1369.16 910.178 1370.42 907.887 1372.92 C 903.725 1374.51 824.292 1374.64 817.477 1373.28 C 811.578 1368.05 813.086 1292.87 816.838 1288.12 C 822.606 1284.83 887.142 1286 898.46 1285.78 L 898.876 1268.15 z"/>
<path transform="translate(0,0)" fill="rgb(91,19,95)" d="M 820.035 1186.84 L 817.609 1185.15 L 817.661 1184.08 C 827.503 1183.02 895.56 1181.53 902.76 1184.41 L 900.433 1186.78 C 878.508 1187.33 857.76 1189.03 835.603 1187.4 C 831.099 1187.07 824.006 1187.74 820.035 1186.84 z"/>
<path transform="translate(0,0)" fill="rgb(121,33,127)" d="M 1213.83 1169.23 C 1214.17 1165.82 1213.65 1164.22 1215.68 1162.36 C 1232.98 1161.22 1257.51 1161.98 1275.25 1162.02 L 1379.86 1162.11 L 1379.88 1213.87 L 1354 1213.9 L 1354.28 1195.92 C 1354.18 1193.03 1354.49 1189.7 1352.92 1187.44 C 1345.69 1186.34 1331.1 1186.83 1323.03 1186.85 L 1271.85 1186.85 C 1271.88 1206.9 1273.13 1246.63 1271.47 1265.2 C 1281.28 1264.79 1351.2 1263.72 1355.29 1266.28 C 1356.64 1272.33 1356.11 1284.33 1356.09 1291.13 C 1343.63 1291.16 1280.38 1291.95 1273.07 1290.1 C 1271.13 1293.94 1271.19 1365.99 1273.25 1369.17 C 1286.91 1372.01 1327.78 1369.11 1344.04 1370.02 C 1348.56 1370.28 1357.48 1369.18 1361.18 1369.93 C 1360.9 1360.93 1360.84 1351.92 1360.98 1342.92 C 1367.64 1342.77 1391.1 1339.75 1387.62 1351.69 C 1385.49 1359.02 1386.78 1391.95 1384.29 1395.74 C 1365.17 1396.7 1342.09 1396.12 1322.72 1396.12 L 1214.1 1396.07 C 1214.02 1388.7 1213.72 1380.15 1214.06 1372.89 L 1230.99 1372.9 C 1234.16 1370.51 1236.61 1371.95 1241.63 1369.76 C 1243.11 1357.57 1242.16 1323.07 1242.15 1308.95 L 1242.08 1185.88 C 1236.52 1185.9 1220.7 1186.84 1216.28 1183.18 C 1213.77 1181.1 1214.03 1172.94 1213.83 1169.23 z"/>
<path transform="translate(0,0)" fill="rgb(91,19,95)" d="M 1360.98 1342.92 C 1367.64 1342.77 1391.1 1339.75 1387.62 1351.69 C 1385.49 1359.02 1386.78 1391.95 1384.29 1395.74 C 1365.17 1396.7 1342.09 1396.12 1322.72 1396.12 L 1214.1 1396.07 C 1214.02 1388.7 1213.72 1380.15 1214.06 1372.89 L 1230.99 1372.9 L 1231.48 1373.16 C 1236.19 1372.78 1238.05 1372.93 1242.61 1373.33 C 1238.84 1375.2 1221.64 1375.86 1217 1375.95 C 1216.64 1380.95 1216.9 1387.16 1216.98 1392.27 L 1382.05 1392.26 C 1381.96 1377.03 1383.08 1361.71 1382.91 1345.98 C 1376.94 1345.78 1370.16 1346.02 1364.12 1346.1 C 1364.05 1350.61 1364.46 1367.49 1362.83 1370.56 L 1361.18 1369.93 C 1360.9 1360.93 1360.84 1351.92 1360.98 1342.92 z"/>
<path transform="translate(0,0)" fill="rgb(91,19,95)" d="M 1271.47 1265.2 C 1281.28 1264.79 1351.2 1263.72 1355.29 1266.28 C 1356.64 1272.33 1356.11 1284.33 1356.09 1291.13 C 1343.63 1291.16 1280.38 1291.95 1273.07 1290.1 L 1271.83 1288.68 L 1272.56 1287.71 C 1278.17 1286.55 1286.9 1287.04 1292.84 1286.73 C 1311.97 1285.72 1332.92 1287.53 1351.8 1286.12 L 1352.01 1268.31 C 1330.08 1267.8 1307.95 1268.44 1286 1268.05 C 1281.33 1267.97 1276.21 1268.33 1271.64 1267.51 L 1271.47 1265.2 z"/>
<path transform="translate(0,0)" fill="rgb(121,33,127)" d="M 393.58 1318.22 C 377.403 1291.84 326.633 1286.94 301.704 1268.01 C 253.423 1231.34 277.695 1164.81 334.584 1158.95 C 361.228 1156.21 416.112 1159.92 420.189 1193.28 C 423.872 1223.41 420.247 1222.26 395.408 1221.73 C 395.585 1216.4 394.234 1199.59 390.387 1196.34 C 360.995 1171.52 291.79 1182.76 310.408 1233.78 C 312.628 1239.87 316.832 1241.98 321.266 1246.26 C 345.872 1260.19 404.731 1274.33 417.316 1297.44 C 469.386 1393.08 320.824 1435.9 272.121 1363.26 L 272.208 1327.18 L 297.839 1327.13 C 297.595 1338.78 298.974 1356.03 310.083 1362.84 C 343.629 1383.39 412.622 1371.84 393.728 1319.07 C 393.679 1318.78 393.63 1318.5 393.58 1318.22 z"/>
<path transform="translate(0,0)" fill="rgb(121,33,127)" d="M 1428.99 1161.98 C 1457.22 1161.95 1490.25 1161.07 1518.08 1162.05 L 1518.14 1185.23 C 1506.6 1184.72 1497.77 1186.42 1488.06 1186.05 L 1488.06 1303.52 C 1488.06 1322.16 1488.83 1349.3 1487.71 1367.35 L 1487.99 1369.88 C 1491.77 1370.01 1495.54 1369.84 1499.32 1369.63 C 1524.01 1368.26 1548.71 1369.14 1573.43 1369.39 C 1576.31 1365.53 1574.26 1344.14 1575.1 1336.51 C 1578.76 1331.83 1593.85 1332.82 1599.01 1335.16 C 1599.6 1335.82 1600.19 1336.49 1600.78 1337.15 C 1600.83 1352.78 1600.02 1381.2 1600.01 1396 C 1543.42 1396.56 1485.69 1396.14 1429.06 1395.99 C 1428.9 1390.75 1428.11 1380.56 1429.48 1375.99 C 1435.48 1370.21 1450 1373.47 1457.59 1370.12 C 1459.67 1353.83 1457.04 1321.79 1457.22 1304.21 C 1457.33 1293.45 1458.04 1284.23 1457.81 1273.3 C 1456.34 1267.66 1456.56 1244.64 1457.84 1238.68 C 1457.27 1222.05 1458.01 1203.01 1457.91 1185.99 C 1430.42 1185.82 1428.4 1189.67 1428.99 1161.98 z"/>
<path transform="translate(0,0)" fill="rgb(91,19,95)" d="M 1428.99 1161.98 C 1457.22 1161.95 1490.25 1161.07 1518.08 1162.05 L 1518.14 1185.23 C 1506.6 1184.72 1497.77 1186.42 1488.06 1186.05 L 1488.06 1303.52 C 1488.06 1322.16 1488.83 1349.3 1487.71 1367.35 L 1486.56 1370.1 L 1485.42 1369.93 C 1483.42 1364.14 1484.52 1319.34 1484.51 1309.72 L 1484.16 1183.54 C 1504.1 1180.3 1514.15 1187.18 1514.77 1165.61 C 1505.49 1164.78 1435.59 1165.1 1432.85 1166.88 C 1432.34 1171.71 1431.83 1175.44 1434.49 1179.5 C 1442.48 1185.65 1462.01 1177.84 1462.03 1187.84 C 1462.07 1204.92 1461.99 1227.59 1462.02 1244.47 L 1461.99 1331.15 C 1461.97 1339.06 1463.43 1369.57 1459.8 1373.99 C 1451.07 1377.59 1437.68 1373.25 1433.2 1378.45 C 1433.09 1382.83 1432.93 1387.2 1432.75 1391.58 C 1445.05 1393.08 1472.11 1392.12 1485.42 1392.25 C 1522.34 1392.62 1559.77 1391.7 1596.71 1392.36 C 1595.66 1377.94 1596.93 1363.15 1596.21 1348.67 C 1596.03 1345.04 1595.98 1341 1596.22 1337.39 C 1591 1337.4 1585.02 1337.28 1579.87 1337.5 C 1577.62 1348.28 1578.24 1361.98 1577.6 1373.51 C 1555.61 1373.68 1508.1 1375.31 1488.28 1373.42 L 1487.28 1372.12 L 1487.99 1369.88 C 1491.77 1370.01 1495.54 1369.84 1499.32 1369.63 C 1524.01 1368.26 1548.71 1369.14 1573.43 1369.39 C 1576.31 1365.53 1574.26 1344.14 1575.1 1336.51 C 1578.76 1331.83 1593.85 1332.82 1599.01 1335.16 C 1599.6 1335.82 1600.19 1336.49 1600.78 1337.15 C 1600.83 1352.78 1600.02 1381.2 1600.01 1396 C 1543.42 1396.56 1485.69 1396.14 1429.06 1395.99 C 1428.9 1390.75 1428.11 1380.56 1429.48 1375.99 C 1435.48 1370.21 1450 1373.47 1457.59 1370.12 C 1459.67 1353.83 1457.04 1321.79 1457.22 1304.21 C 1457.33 1293.45 1458.04 1284.23 1457.81 1273.3 C 1456.34 1267.66 1456.56 1244.64 1457.84 1238.68 C 1457.27 1222.05 1458.01 1203.01 1457.91 1185.99 C 1430.42 1185.82 1428.4 1189.67 1428.99 1161.98 z"/>
<path transform="translate(0,0)" fill="rgb(182,145,182)" d="M 1457.84 1238.68 C 1458.18 1249.57 1458.39 1262.4 1457.81 1273.3 C 1456.34 1267.66 1456.56 1244.64 1457.84 1238.68 z"/>
<path transform="translate(0,0)" fill="rgb(110,197,196)" d="M 1741.99 1376.01 C 1742.08 1383.48 1743.79 1392.66 1738.28 1398.09 C 1733.69 1400.01 1700.58 1399.45 1693.88 1399.25 C 1690.41 1399.15 1686.54 1398.47 1684.24 1395.6 C 1679.88 1390.15 1680.68 1379.05 1680.89 1372.51 C 1683.48 1294.29 1753.56 1291.02 1757.82 1234.82 C 1758.35 1227.83 1760.12 1206.04 1756.09 1201.43 C 1748.14 1200.37 1733.38 1200.98 1724.59 1200.95 C 1698.04 1200.87 1671.37 1201.31 1644.82 1201 C 1640.72 1200.95 1635.25 1200.63 1632.48 1197.63 C 1631.67 1192.24 1631.65 1138.5 1632.49 1132.73 C 1672.38 1119.27 1661.49 1151.48 1661.76 1176.78 C 1668.75 1180.77 1761.34 1176.23 1774.06 1177.85 C 1777.33 1178.26 1780.96 1177.53 1785.46 1178.94 C 1789.16 1184.18 1791.16 1210.23 1790.97 1217.21 C 1789.42 1273.22 1775.87 1281.44 1736.55 1317.02 C 1722.51 1329.72 1711.45 1342.56 1710.87 1362.35 C 1710.85 1366.37 1710.33 1372.34 1711.88 1375.75 L 1712.92 1376.42 C 1719.61 1375.63 1734.6 1376 1741.99 1376.01 z"/>
<path transform="translate(0,0)" fill="rgb(110,186,182)" d="M 1741.99 1376.01 C 1742.08 1383.48 1743.79 1392.66 1738.28 1398.09 C 1733.69 1400.01 1700.58 1399.45 1693.88 1399.25 C 1690.41 1399.15 1686.54 1398.47 1684.24 1395.6 C 1679.88 1390.15 1680.68 1379.05 1680.89 1372.51 C 1683.48 1294.29 1753.56 1291.02 1757.82 1234.82 C 1758.35 1227.83 1760.12 1206.04 1756.09 1201.43 C 1748.14 1200.37 1733.38 1200.98 1724.59 1200.95 C 1698.04 1200.87 1671.37 1201.31 1644.82 1201 C 1640.72 1200.95 1635.25 1200.63 1632.48 1197.63 C 1631.67 1192.24 1631.65 1138.5 1632.49 1132.73 C 1672.38 1119.27 1661.49 1151.48 1661.76 1176.78 C 1668.75 1180.77 1761.34 1176.23 1774.06 1177.85 C 1777.33 1178.26 1780.96 1177.53 1785.46 1178.94 C 1789.16 1184.18 1791.16 1210.23 1790.97 1217.21 C 1789.42 1273.22 1775.87 1281.44 1736.55 1317.02 C 1722.51 1329.72 1711.45 1342.56 1710.87 1362.35 L 1710.66 1363.07 C 1709.21 1368.22 1710.04 1370.89 1707.54 1375.93 L 1707.08 1376.14 L 1706.54 1374.99 L 1707.97 1374.32 L 1706.35 1373.96 L 1708.25 1373.3 L 1706.23 1372.91 C 1704.13 1332.34 1729.24 1318.23 1756.37 1293.97 C 1782.36 1270.73 1788.6 1239.3 1784.94 1206.06 C 1783.88 1195.77 1784.18 1194.02 1778.77 1184.61 C 1773.78 1183.16 1768.39 1183.51 1763.22 1183.6 C 1734.32 1184.1 1705.42 1183.66 1676.51 1184.08 C 1669 1184.19 1656.19 1183.56 1652.11 1176.27 C 1652.6 1173.12 1653.24 1173.75 1653.64 1172.44 C 1656.71 1162.4 1655.96 1145.13 1656.96 1135.23 C 1651.31 1135.32 1642.9 1135.16 1637.59 1136.15 C 1635.44 1143.09 1636.43 1185.18 1636.49 1195.5 L 1713.74 1195.31 C 1723.5 1195.27 1759.78 1193.92 1761.16 1197.68 C 1789.52 1275.05 1689.84 1293.94 1686.26 1361.1 C 1685.22 1380.61 1685.24 1387.12 1687.27 1393.19 C 1690.45 1395.76 1730.64 1394.55 1737.45 1394.51 C 1737.47 1389.88 1737.56 1385.1 1737.46 1380.49 C 1731.34 1380.61 1717.83 1381.31 1712.64 1379.8 L 1711.5 1378.41 L 1712.92 1376.42 C 1719.61 1375.63 1734.6 1376 1741.99 1376.01 z"/>
<path transform="translate(0,0)" fill="rgb(110,197,196)" d="M 1828.03 1144.02 C 1833.7 1143.93 1851.62 1142.71 1852.77 1148.4 C 1857.69 1172.63 1842.88 1212.79 1836.72 1235.81 C 1835.84 1237.17 1836.72 1238.36 1834.96 1241.6 C 1831.3 1243.37 1824.62 1242.23 1820.75 1241.34 C 1818.68 1234.7 1828.3 1159.75 1828.03 1144.02 z"/>
<path transform="translate(0,0)" fill="rgb(110,197,196)" d="M 1874.14 1144.05 C 1893.54 1143.73 1902.54 1141.34 1899.47 1165.73 C 1896.55 1188.98 1888.74 1210.85 1882.35 1233.26 L 1882.1 1234.16 C 1881.14 1238.42 1881.31 1240.4 1878.13 1242.64 C 1873.56 1243.26 1868.73 1243.11 1864.63 1240.81 C 1864 1237.39 1867.43 1220.08 1867.79 1214.93 C 1869.35 1192.91 1874.21 1165.56 1874.14 1144.05 z"/>
</svg>